HIERARCHY
ROOT hip
{
  OFFSET 0 0 0
  CHANNELS 6 Xposition Yposition Zposition Zrotation Yrotation Xrotation
  JOINT abdomen
  {
    OFFSET 0 20.6881 -0.73152
    CHANNELS 3 Zrotation Xrotation Yrotation
    JOINT chest
    {
      OFFSET 0 11.7043 -0.48768
      CHANNELS 3 Zrotation Xrotation Yrotation
      JOINT neck
      {
        OFFSET 0 22.1894 -2.19456
        CHANNELS 3 Zrotation Xrotation Yrotation
        JOINT head
        {
          OFFSET -0.24384 7.07133 1.2192
          CHANNELS 3 Zrotation Xrotation Yrotation
          JOINT leftEye
          {
            OFFSET 4.14528 8.04674 8.04672
            CHANNELS 3 Zrotation Xrotation Yrotation
            End Site
            {
              OFFSET 1 0 0
            }
          }
          JOINT rightEye
          {
            OFFSET -3.6576 8.04674 8.04672
            CHANNELS 3 Zrotation Xrotation Yrotation
            End Site
            {
              OFFSET 1 0 0
            }
          }
        }
      }
      JOINT rCollar
      {
        OFFSET -2.68224 19.2634 -4.8768
        CHANNELS 3 Zrotation Xrotation Yrotation
        JOINT rShldr
        {
          OFFSET -8.77824 -1.95073 1.46304
          CHANNELS 3 Zrotation Xrotation Yrotation
          JOINT rForeArm
          {
            OFFSET -28.1742 -1.7115 0.48768
            CHANNELS 3 Zrotation Xrotation Yrotation
            JOINT rHand
            {
              OFFSET -22.5879 0.773209 7.07136
              CHANNELS 3 Zrotation Xrotation Yrotation
              JOINT rThumb1
              {
                OFFSET -1.2192 -0.487915 3.41376
                CHANNELS 3 Zrotation Xrotation Yrotation
                JOINT rThumb2
                {
                  OFFSET -3.37035 -0.52449 3.41376
                  CHANNELS 3 Zrotation Xrotation Yrotation
                  End Site
                  {
                    OFFSET -1.78271 -1.18214 1.43049
                  }
                }
              }
              JOINT rIndex1
              {
                OFFSET -7.75947 0.938293 5.60832
                CHANNELS 3 Zrotation Xrotation Yrotation
                JOINT rIndex2
                {
                  OFFSET -2.54057 -0.884171 1.56538
                  CHANNELS 3 Zrotation Xrotation Yrotation
                  End Site
                  {
                    OFFSET -1.62519 -0.234802 1.16502
                  }
                }
              }
              JOINT rMid1
              {
                OFFSET -8.24714 1.18213 3.41376
                CHANNELS 3 Zrotation Xrotation Yrotation
                JOINT rMid2
                {
                  OFFSET -3.10165 -0.590103 1.0647
                  CHANNELS 3 Zrotation Xrotation Yrotation
                  End Site
                  {
                    OFFSET -2.48547 -0.328903 0.83742
                  }
                }
              }
              JOINT rRing1
              {
                OFFSET -8.82822 0.546677 1.51678
                CHANNELS 3 Zrotation Xrotation Yrotation
                JOINT rRing2
                {
                  OFFSET -2.60934 -0.819778 -0.0198488
                  CHANNELS 3 Zrotation Xrotation Yrotation
                  End Site
                  {
                    OFFSET -2.33842 -0.294052 0.168128
                  }
                }
              }
              JOINT rPinky1
              {
                OFFSET -8.27202 -0.0477905 -0.4584
                CHANNELS 3 Zrotation Xrotation Yrotation
                JOINT rPinky2
                {
                  OFFSET -1.82734 -0.647385 -0.700984
                  CHANNELS 3 Zrotation Xrotation Yrotation
                  End Site
                  {
                    OFFSET -1.69225 -0.51767 -0.607171
                  }
                }
              }
            }
          }
        }
      }
      JOINT lCollar
      {
        OFFSET 2.68224 19.2634 -4.8768
        CHANNELS 3 Zrotation Xrotation Yrotation
        JOINT lShldr
        {
          OFFSET 8.77824 -1.95073 1.46304
          CHANNELS 3 Zrotation Xrotation Yrotation
          JOINT lForeArm
          {
            OFFSET 28.1742 -1.7115 0.48768
            CHANNELS 3 Zrotation Xrotation Yrotation
            JOINT lHand
            {
              OFFSET 22.5879 0.773209 7.07136
              CHANNELS 3 Zrotation Xrotation Yrotation
              JOINT lThumb1
              {
                OFFSET 1.2192 -0.487915 3.41376
                CHANNELS 3 Zrotation Xrotation Yrotation
                JOINT lThumb2
                {
                  OFFSET 3.37035 -0.52449 3.41376
                  CHANNELS 3 Zrotation Xrotation Yrotation
                  End Site
                  {
                    OFFSET 1.78271 -1.18214 1.43049
                  }
                }
              }
              JOINT lIndex1
              {
                OFFSET 7.75947 0.938293 5.60832
                CHANNELS 3 Zrotation Xrotation Yrotation
                JOINT lIndex2
                {
                  OFFSET 2.54057 -0.884171 1.56538
                  CHANNELS 3 Zrotation Xrotation Yrotation
                  End Site
                  {
                    OFFSET 1.62519 -0.234802 1.16502
                  }
                }
              }
              JOINT lMid1
              {
                OFFSET 8.24714 1.18213 3.41376
                CHANNELS 3 Zrotation Xrotation Yrotation
                JOINT lMid2
                {
                  OFFSET 3.10165 -0.590103 1.0647
                  CHANNELS 3 Zrotation Xrotation Yrotation
                  End Site
                  {
                    OFFSET 2.48547 -0.328903 0.83742
                  }
                }
              }
              JOINT lRing1
              {
                OFFSET 8.82822 0.546677 1.51678
                CHANNELS 3 Zrotation Xrotation Yrotation
                JOINT lRing2
                {
                  OFFSET 2.60934 -0.819778 -0.0198488
                  CHANNELS 3 Zrotation Xrotation Yrotation
                  End Site
                  {
                    OFFSET 2.33842 -0.294052 0.168128
                  }
                }
              }
              JOINT lPinky1
              {
                OFFSET 8.27202 -0.0477905 -0.4584
                CHANNELS 3 Zrotation Xrotation Yrotation
                JOINT lPinky2
                {
                  OFFSET 1.82734 -0.647385 -0.700984
                  CHANNELS 3 Zrotation Xrotation Yrotation
                  End Site
                  {
                    OFFSET 1.69225 -0.51767 -0.607171
                  }
                }
              }
            }
          }
        }
      }
    }
  }
  JOINT rButtock
  {
    OFFSET -8.77824 4.35084 1.2192
    CHANNELS 3 Zrotation Xrotation Yrotation
    JOINT rThigh
    {
      OFFSET 0 -1.70687 -2.19456
      CHANNELS 3 Zrotation Xrotation Yrotation
      JOINT rShin
      {
        OFFSET 0 -36.8199 0.73152
        CHANNELS 3 Zrotation Xrotation Yrotation
        JOINT rFoot
        {
          OFFSET 0.73152 -45.1104 -5.12064
          CHANNELS 3 Zrotation Xrotation Yrotation
          End Site
          {
            OFFSET -1.1221 -3.69964 12.103
          }
        }
      }
    }
  }
  JOINT lButtock
  {
    OFFSET 8.77824 4.35084 1.2192
    CHANNELS 3 Zrotation Xrotation Yrotation
    JOINT lThigh
    {
      OFFSET 0 -1.70687 -2.19456
      CHANNELS 3 Zrotation Xrotation Yrotation
      JOINT lShin
      {
        OFFSET 0 -36.8199 0.73152
        CHANNELS 3 Zrotation Xrotation Yrotation
        JOINT lFoot
        {
          OFFSET -0.73152 -45.1104 -5.12064
          CHANNELS 3 Zrotation Xrotation Yrotation
          End Site
          {
            OFFSET 1.1221 -3.69964 12.103
          }
        }
      }
    }
  }
}
MOTION
Frames:	6
Frame Time:	0.00833333
13.1798 85.0781 22.9317 -390.302 -79.2571 395.485 13.1846 -1.43871 -2.28812 6.08071 -0.574424 -0.761304 -0.83274 2.5576 0.709006 9.46205 -5.62406 1.6958 -0.0 0.0 0.0 -0.0 0.0 0.0 -4.92091e-14 -1.06705e-12 1.01082e-13 62.1677 -9.36494 -2.75666 -9.43032 -3.80232 16.7374 -0.347473 16.5341 2.39113 2.2913e-10 -1.39905e-09 -1.44648e-10 3.96862e-10 -2.42188e-09 -2.49289e-10 2.29134e-10 -1.39905e-09 -1.44655e-10 7.73091 5.47488 0.417314 2.29129e-10 -1.39905e-09 -1.44652e-10 2.90554 0.965183 0.102902 2.29133e-10 -1.39905e-09 -1.44649e-10 10.2786 0.731801 0.0259123 2.29128e-10 -1.39905e-09 -1.44642e-10 2.22167 -0.733487 -0.20892 -4.9391e-14 -1.0671e-12 1.00883e-13 -6.7454 -18.9558 -18.0561 20.9204 -14.2152 -40.9639 0.293654 15.2412 -2.19455 8.74031e-10 -2.1359e-10 -3.11806e-10 1.5039e-09 -3.57644e-10 -5.52009e-10 8.74026e-10 -2.13591e-10 -3.11803e-10 -7.73091 5.47488 -0.417314 8.74038e-10 -2.13588e-10 -3.11812e-10 -2.90554 0.965183 -0.102902 8.74029e-10 -2.13593e-10 -3.11805e-10 -10.2786 0.731801 -0.0259123 8.74037e-10 -2.13588e-10 -3.11809e-10 -2.22167 -0.733487 0.20892 -2.03217e-16 0.0 -3.88251e-19 7.26856 -18.8496 -1.04025 -0.0616943 21.6493 0.150848 -2.74794 -3.90642 -17.2512 2.03217e-16 0.0 3.88251e-19 11.9057 -25.0434 -0.902592 1.0489 59.5108 -1.44022 0.394125 5.95469 0.344312
12.424 85.1399 22.8083 -390.911 -79.2405 396.049 13.3157 -1.38591 -2.14731 5.93384 -0.589502 -0.721367 -0.756034 2.61849 0.77626 9.34757 -5.53399 1.79308 -0.0 0.0 0.0 -0.0 0.0 0.0 8.53612e-15 -8.31213e-13 1.10041e-13 62.3878 -8.33499 -2.27101 -9.59105 -3.89705 17.0361 -0.318071 15.8602 2.28815 -3.0606e-10 -1.8844e-09 1.15953e-09 -5.14083e-10 -3.26074e-09 2.00962e-09 -3.06057e-10 -1.8844e-09 1.15952e-09 7.73091 5.47488 0.417314 -3.06061e-10 -1.8844e-09 1.15953e-09 2.90554 0.965183 0.102902 -3.06056e-10 -1.8844e-09 1.15953e-09 10.2786 0.731801 0.0259123 -3.06061e-10 -1.8844e-09 1.15953e-09 2.22167 -0.733487 -0.20892 8.38975e-15 -8.31261e-13 1.09837e-13 -7.8732 -17.5186 -17.9823 20.9232 -14.2191 -40.9711 0.279003 14.8583 -2.1369 -1.52939e-10 1.03861e-10 -1.16899e-11 -2.6663e-10 1.76117e-10 -1.81013e-11 -1.52946e-10 1.03862e-10 -1.16891e-11 -7.73091 5.47488 -0.417314 -1.52933e-10 1.03863e-10 -1.1695e-11 -2.90554 0.965183 -0.102902 -1.52942e-10 1.03859e-10 -1.16878e-11 -10.2786 0.731801 -0.0259123 -1.52933e-10 1.03864e-10 -1.16898e-11 -2.22167 -0.733487 0.20892 -2.03217e-16 0.0 -3.88251e-19 7.60008 -18.0962 -0.93542 -0.0558821 21.2979 0.162469 -2.82144 -4.17203 -17.3174 2.03217e-16 0.0 3.88251e-19 12.1769 -25.9229 -0.552583 1.03938 59.3648 -1.43305 0.408035 4.87933 0.572349
11.6722 85.198 22.691 -391.569 -79.2484 396.666 13.451 -1.32497 -1.99446 5.76729 -0.617979 -0.677432 -0.658638 2.69396 0.855902 9.20325 -5.44988 1.9088 -0.0 0.0 0.0 -0.0 0.0 0.0 9.47734e-14 -2.08336e-13 9.29349e-14 62.6069 -7.22521 -1.7806 -9.77703 -4.00727 17.3837 -0.286828 15.0906 2.17155 -1.09931e-09 -2.40232e-09 3.3399e-09 -1.8615e-09 -4.15329e-09 5.78427e-09 -1.0993e-09 -2.40232e-09 3.33989e-09 7.73091 5.47488 0.417314 -1.09931e-09 -2.40232e-09 3.33989e-09 2.90554 0.965183 0.102902 -1.0993e-09 -2.40232e-09 3.33989e-09 10.2786 0.731801 0.0259123 -1.09931e-09 -2.40232e-09 3.3399e-09 2.22167 -0.733487 -0.20892 9.46779e-14 -2.08367e-13 9.27299e-14 -9.04297 -16.0114 -17.8581 20.9323 -14.2314 -40.9941 0.267214 14.5516 -2.09077 -1.97111e-09 7.1287e-10 4.26937e-10 -3.40204e-09 1.20397e-09 7.67366e-10 -1.97112e-09 7.12873e-10 4.26938e-10 -7.73091 5.47488 -0.417314 -1.97111e-09 7.12872e-10 4.26935e-10 -2.90554 0.965183 -0.102902 -1.97112e-09 7.1287e-10 4.26942e-10 -10.2786 0.731801 -0.0259123 -1.97111e-09 7.12874e-10 4.26942e-10 -2.22167 -0.733487 0.20892 -2.03217e-16 0.0 -3.88251e-19 7.92501 -17.3469 -0.815539 -0.0504932 20.9479 0.175286 -2.8915 -4.42413 -17.3775 2.03217e-16 0.0 3.88251e-19 12.4396 -26.7685 -0.190381 1.02203 59.0899 -1.41803 0.432938 3.79342 0.847131
10.9248 85.2526 22.5825 -392.245 -79.2819 397.307 13.5771 -1.2618 -1.83955 5.58993 -0.647721 -0.632952 -0.541216 2.77278 0.946669 9.0333 -5.37237 2.04161 -0.0 0.0 0.0 -0.0 0.0 0.0 1.73804e-13 4.16938e-13 7.1156e-14 62.8155 -6.07449 -1.27194 -9.97906 -4.12854 17.7625 -0.25673 14.2901 2.05134 -1.87733e-09 -2.82829e-09 5.34988e-09 -3.18434e-09 -4.88713e-09 9.26414e-09 -1.87732e-09 -2.82829e-09 5.34987e-09 7.73091 5.47488 0.417314 -1.87733e-09 -2.82829e-09 5.34987e-09 2.90554 0.965183 0.102902 -1.87732e-09 -2.82829e-09 5.34987e-09 10.2786 0.731801 0.0259123 -1.87733e-09 -2.82828e-09 5.34988e-09 2.22167 -0.733487 -0.20892 1.73759e-13 4.16926e-13 7.09525e-14 -10.2508 -14.4603 -17.6672 20.9451 -14.2488 -41.0267 0.258065 14.3129 -2.05491 -3.64365e-09 1.19597e-09 8.68766e-10 -6.28562e-09 2.01563e-09 1.55654e-09 -3.64366e-09 1.19598e-09 8.68768e-10 -7.73091 5.47488 -0.417314 -3.64365e-09 1.19598e-09 8.68767e-10 -2.90554 0.965183 -0.102902 -3.64366e-09 1.19598e-09 8.68773e-10 -10.2786 0.731801 -0.0259123 -3.64365e-09 1.19598e-09 8.68774e-10 -2.22167 -0.733487 0.20892 -2.03217e-16 0.0 -3.88251e-19 8.23377 -16.6115 -0.681717 -0.0455568 20.605 0.1889 -2.96071 -4.6673 -17.4356 2.03217e-16 0.0 3.88251e-19 12.688 -27.5789 0.181128 0.997626 58.6908 -1.39586 0.470476 2.75061 1.17404
10.1821 85.3025 22.4832 -392.927 -79.3408 397.961 13.6807 -1.20231 -1.69254 5.41058 -0.666594 -0.591378 -0.404364 2.84373 1.04729 8.84195 -5.30209 2.19019 -0.0 0.0 0.0 -0.0 0.0 0.0 2.0993e-13 6.59965e-13 6.60959e-14 63.0043 -4.92173 -0.731338 -10.1882 -4.25649 18.1548 -0.22969 13.5234 1.93706 -2.36684e-09 -3.0378e-09 6.14289e-09 -4.02159e-09 -5.24984e-09 1.06387e-08 -2.36684e-09 -3.0378e-09 6.14288e-09 7.73091 5.47488 0.417314 -2.36684e-09 -3.0378e-09 6.14289e-09 2.90554 0.965183 0.102902 -2.36683e-09 -3.0378e-09 6.14289e-09 10.2786 0.731801 0.0259123 -2.36684e-09 -3.0378e-09 6.14289e-09 2.22167 -0.733487 -0.20892 2.09917e-13 6.59965e-13 6.58971e-14 -11.4946 -12.8903 -17.3927 20.9594 -14.2683 -41.0631 0.251458 14.1341 -2.02814 -4.23372e-09 1.13571e-09 1.17849e-09 -7.30066e-09 1.9008e-09 2.10158e-09 -4.23372e-09 1.13571e-09 1.17849e-09 -7.73091 5.47488 -0.417314 -4.23372e-09 1.13571e-09 1.17849e-09 -2.90554 0.965183 -0.102902 -4.23373e-09 1.13571e-09 1.1785e-09 -10.2786 0.731801 -0.0259123 -4.23372e-09 1.13571e-09 1.1785e-09 -2.22167 -0.733487 0.20892 -2.03217e-16 0.0 -3.88251e-19 8.51693 -15.8996 -0.534996 -0.0411189 20.275 0.202916 -3.03174 -4.90611 -17.4959 2.03217e-16 0.0 3.88251e-19 12.9163 -28.3523 0.558905 0.967104 58.1722 -1.36735 0.521315 1.80456 1.55851
9.44571 85.3473 22.3933 -393.604 -79.4269 398.623 13.7547 -1.1472 -1.55854 5.22939 -0.669117 -0.554317 -0.238741 2.90109 1.16201 8.6193 -5.23243 2.35996 -0.0 0.0 0.0 -0.0 0.0 0.0 1.78567e-13 2.64026e-13 9.23479e-14 63.175 -3.75545 -0.147449 -10.404 -4.39086 18.5608 -0.204754 12.7873 1.82789 -2.46864e-09 -2.99375e-09 5.08024e-09 -4.20873e-09 -5.17966e-09 8.80368e-09 -2.46864e-09 -2.99375e-09 5.08023e-09 7.73091 5.47488 0.417314 -2.46864e-09 -2.99375e-09 5.08023e-09 2.90554 0.965183 0.102902 -2.46864e-09 -2.99375e-09 5.08024e-09 10.2786 0.731801 0.0259123 -2.46865e-09 -2.99374e-09 5.08024e-09 2.22167 -0.733487 -0.20892 1.78562e-13 2.64026e-13 9.21615e-14 -12.7743 -11.294 -17.0174 20.9799 -14.2964 -41.1152 0.246333 13.986 -2.00607 -3.12721e-09 1.9157e-10 1.30803e-09 -5.38671e-09 2.77598e-10 2.31072e-09 -3.12721e-09 1.91573e-10 1.30804e-09 -7.73091 5.47488 -0.417314 -3.12721e-09 1.9157e-10 1.30803e-09 -2.90554 0.965183 -0.102902 -3.12722e-09 1.91573e-10 1.30804e-09 -10.2786 0.731801 -0.0259123 -3.12721e-09 1.91574e-10 1.30804e-09 -2.22167 -0.733487 0.20892 -2.03217e-16 0.0 -3.88251e-19 8.76928 -15.215 -0.372721 -0.0372081 19.9625 0.217718 -3.10634 -5.14565 -17.5598 2.03217e-16 0.0 3.88251e-19 13.1183 -29.0921 0.949777 0.931189 57.5353 -1.33325 0.588007 0.974663 2.02331
